<svg xmlns="http://www.w3.org/2000/svg" xmlns:xlink="http://www.w3.org/1999/xlink" width="500" zoomAndPan="magnify" viewBox="0 0 375 374.999991" height="500" preserveAspectRatio="xMidYMid meet" version="1.2"><g id="5eae359e9e"><path style=" stroke:none;fill-rule:nonzero;fill:#c03c29;fill-opacity:1;" d="M 170.15625 2.785156 C 165.429688 3.800781 160.605469 7.050781 156.796875 6.625 C 143.011719 5.015625 138.84375 13.351562 135.398438 23.789062 C 120.792969 67.769531 109.566406 112.539062 103.988281 158.621094 C 101.984375 175.097656 106.417969 179.167969 122.597656 175.523438 C 124.601562 175.066406 126.535156 174.308594 128.539062 173.753906 C 135.265625 171.945312 138.351562 166.925781 137.203125 160.722656 C 136.054688 154.648438 137.5 149.203125 138.613281 143.65625 C 141.4375 129.441406 144.71875 115.363281 147.835938 101.214844 C 148.59375 100.789062 149.378906 100.722656 150.199219 101.019531 C 151.511719 116.28125 153.320312 131.511719 154.007812 146.773438 C 155.746094 185.929688 165.132812 224.394531 163.296875 264.011719 C 162.441406 282.851562 165.5625 301.984375 168.253906 320.792969 C 170.386719 335.59375 169.269531 350.59375 172.386719 365.234375 C 173.964844 372.683594 175.867188 374.0625 181.9375 369.664062 C 194.082031 360.933594 206.160156 351.808594 202.253906 333.722656 C 201.566406 330.539062 201.925781 327.125 201.566406 323.8125 C 198.449219 292.925781 196.707031 261.945312 194.738281 230.992188 C 192.605469 197.546875 190.339844 164.101562 188.042969 130.65625 C 187.289062 119.5 186.238281 108.371094 185.253906 96.128906 C 190.734375 99.542969 192.34375 103.972656 194.839844 107.617188 C 203.273438 119.957031 213.316406 130.921875 223 142.242188 C 237.769531 159.539062 257.460938 152.121094 269.539062 143.6875 C 271.804688 142.113281 273.085938 140.078125 270 137.878906 C 260.679688 131.214844 255.164062 121.304688 248.796875 112.210938 C 230.480469 86.152344 214.105469 58.84375 197.726562 31.535156 C 193.460938 24.445312 189.257812 17.324219 185.121094 10.203125 C 181.773438 4.394531 178.132812 1.046875 170.15625 2.785156 Z M 148.429688 96.160156 C 148.328125 95.964844 148.296875 95.769531 148.132812 95.570312 C 148.296875 95.703125 148.394531 95.867188 148.492188 96.03125 C 148.492188 96.0625 148.460938 96.097656 148.429688 96.160156 Z M 148.429688 96.160156 "/></g></svg>