<svg xmlns="http://www.w3.org/2000/svg" xmlns:xlink="http://www.w3.org/1999/xlink" width="500" zoomAndPan="magnify" viewBox="0 0 375 374.999991" height="500" preserveAspectRatio="xMidYMid meet" version="1.2"><defs><clipPath id="eaaea0d6c6"><path d="M 12 141.058594 L 106 141.058594 L 106 211 L 12 211 Z M 12 141.058594 "/></clipPath></defs><g id="a4195f8966"><path style=" stroke:none;fill-rule:nonzero;fill:#c03c29;fill-opacity:1;" d="M 348.335938 184.515625 C 267.921875 219.5 172.8125 226.671875 91.886719 189.269531 C 81.25 184.398438 71.050781 178.738281 61.285156 172.296875 C 51.523438 165.855469 42.308594 158.703125 33.648438 150.84375 C 30.671875 148.117188 25.335938 149.152344 21.992188 150.589844 C 20.074219 151.433594 14.296875 155.0625 17.335938 157.777344 C 85.398438 218.601562 183.417969 233.917969 270.882812 216.4375 C 301.335938 210.40625 330.574219 200.714844 358.601562 187.367188 C 360.679688 186.375 364.074219 183.882812 360.648438 182.382812 C 357.222656 180.886719 351.464844 183.152344 348.335938 184.515625 Z M 348.335938 184.515625 "/><g clip-rule="nonzero" clip-path="url(#eaaea0d6c6)"><path style=" stroke:none;fill-rule:nonzero;fill:#c03c29;fill-opacity:1;" d="M 103.007812 155.144531 C 90 154.300781 77.097656 153.675781 64.199219 151.578125 C 51.328125 149.472656 38.699219 146.371094 26.316406 142.277344 C 22.839844 141.125 11.441406 142.277344 12.355469 148.050781 C 14.082031 158.8125 16.769531 169.328125 20.417969 179.597656 C 24.0625 189.867188 28.609375 199.722656 34.054688 209.164062 C 36.589844 213.664062 51.769531 208.769531 48.429688 203.019531 C 43.234375 193.875 38.910156 184.335938 35.453125 174.402344 C 31.992188 164.472656 29.460938 154.308594 27.855469 143.917969 L 13.882812 149.691406 C 26.667969 153.859375 39.699219 157.023438 52.96875 159.1875 C 66.601562 161.371094 80.960938 163.078125 94.761719 162.03125 C 98.015625 161.785156 102.109375 160.914062 104.597656 158.648438 C 106.53125 156.871094 105.695312 155.347656 103.007812 155.164062 Z M 103.007812 155.144531 "/></g></g></svg>