<svg xmlns="http://www.w3.org/2000/svg" xmlns:xlink="http://www.w3.org/1999/xlink" width="500" zoomAndPan="magnify" viewBox="0 0 375 374.999991" height="500" preserveAspectRatio="xMidYMid meet" version="1.2"><defs/><g id="884dd1dadf"><g style="fill:#597394;fill-opacity:1;"><g transform="translate(-4.810218, 354.597431)"><path style="stroke:none" d="M 186.828125 -209.5625 L 198.6875 -209.5625 L 235.265625 -106.265625 L 220.9375 -106.265625 L 212.046875 -132.953125 L 173 -132.953125 L 164.09375 -106.265625 L 149.765625 -106.265625 Z M 176.953125 -144.328125 L 207.59375 -144.328125 L 192.765625 -188.8125 L 192.265625 -188.8125 Z M 359.828125 -292.609375 C 359.828125 -252.734375 359.828125 -212.859375 359.828125 -172.984375 C 359.828125 -133.117188 359.828125 -93.25 359.828125 -53.375 C 359.828125 -36.90625 355.046875 -23.972656 345.484375 -14.578125 C 335.929688 -5.191406 322.914062 -0.5 306.4375 -0.5 C 268.550781 -0.5 230.492188 -0.5 192.265625 -0.5 C 154.046875 -0.5 115.820312 -0.5 77.59375 -0.5 C 61.445312 -0.5 48.675781 -5.191406 39.28125 -14.578125 C 29.894531 -23.972656 25.039062 -36.742188 24.71875 -52.890625 C 24.71875 -72.984375 24.71875 -93.082031 24.71875 -113.1875 C 24.71875 -133.289062 24.71875 -153.390625 24.71875 -173.484375 C 24.71875 -193.253906 24.71875 -213.023438 24.71875 -232.796875 C 24.71875 -252.566406 24.71875 -272.335938 24.71875 -292.109375 C 25.039062 -309.242188 29.894531 -322.503906 39.28125 -331.890625 C 48.675781 -341.285156 61.941406 -345.984375 79.078125 -345.984375 C 116.972656 -345.984375 154.785156 -345.984375 192.515625 -345.984375 C 230.242188 -345.984375 268.054688 -345.984375 305.953125 -345.984375 C 322.753906 -345.984375 335.929688 -341.285156 345.484375 -331.890625 C 355.046875 -322.503906 359.828125 -309.410156 359.828125 -292.609375 Z M 77.109375 -285.6875 C 77.109375 -300.507812 81.222656 -312.039062 89.453125 -320.28125 C 97.691406 -328.519531 109.226562 -332.472656 124.0625 -332.140625 C 145.8125 -332.472656 167.476562 -332.554688 189.0625 -332.390625 C 210.644531 -332.222656 232.304688 -332.304688 254.046875 -332.640625 C 257.671875 -332.640625 261.296875 -332.96875 264.921875 -333.625 C 268.546875 -334.289062 272.007812 -334.785156 275.3125 -335.109375 C 242.351562 -336.429688 209.644531 -337.171875 177.1875 -337.328125 C 144.738281 -337.492188 112.203125 -337.578125 79.578125 -337.578125 C 49.265625 -337.578125 33.773438 -322.253906 33.109375 -291.609375 C 33.109375 -255.367188 33.109375 -218.957031 33.109375 -182.375 C 33.109375 -145.800781 33.109375 -109.394531 33.109375 -73.15625 C 33.109375 -71.832031 33.109375 -70.347656 33.109375 -68.703125 C 33.109375 -67.054688 33.109375 -65.410156 33.109375 -63.765625 C 34.097656 -63.765625 34.925781 -63.597656 35.59375 -63.265625 C 41.519531 -69.523438 47.53125 -75.785156 53.625 -82.046875 C 59.71875 -88.304688 65.40625 -94.734375 70.6875 -101.328125 C 74.632812 -105.273438 76.609375 -110.21875 76.609375 -116.15625 C 76.941406 -144.488281 77.109375 -172.820312 77.109375 -201.15625 C 77.109375 -229.5 77.109375 -257.675781 77.109375 -285.6875 Z M 295.578125 -108.25 C 295.578125 -123.070312 295.578125 -137.894531 295.578125 -152.71875 C 295.578125 -167.550781 295.738281 -182.21875 296.0625 -196.71875 C 296.0625 -211.875 296.0625 -227.03125 296.0625 -242.1875 C 296.0625 -257.34375 296.0625 -272.5 296.0625 -287.65625 C 296.0625 -298.207031 293.015625 -306.691406 286.921875 -313.109375 C 280.828125 -319.535156 272.671875 -322.914062 262.453125 -323.25 C 215.003906 -323.582031 167.390625 -323.582031 119.609375 -323.25 C 109.398438 -322.914062 101.164062 -319.453125 94.90625 -312.859375 C 88.644531 -306.273438 85.515625 -297.710938 85.515625 -287.171875 C 85.515625 -257.179688 85.515625 -227.191406 85.515625 -197.203125 C 85.515625 -167.222656 85.515625 -137.238281 85.515625 -107.25 C 85.515625 -96.375 88.722656 -87.722656 95.140625 -81.296875 C 101.566406 -74.878906 110.382812 -71.671875 121.59375 -71.671875 C 144.65625 -71.671875 167.632812 -71.671875 190.53125 -71.671875 C 213.4375 -71.671875 236.421875 -71.671875 259.484375 -71.671875 C 271.015625 -71.671875 279.910156 -74.878906 286.171875 -81.296875 C 292.441406 -87.722656 295.578125 -96.707031 295.578125 -108.25 Z M 295.578125 -108.25 "/></g></g></g></svg>