<svg xmlns="http://www.w3.org/2000/svg" xmlns:xlink="http://www.w3.org/1999/xlink" width="500" zoomAndPan="magnify" viewBox="0 0 375 374.999991" height="500" preserveAspectRatio="xMidYMid meet" version="1.2"><defs><clipPath id="17384cf1d5"><path d="M 269 141.058594 L 363 141.058594 L 363 211 L 269 211 Z M 269 141.058594 "/></clipPath></defs><g id="de38d6451b"><path style=" stroke:none;fill-rule:nonzero;fill:#c03c29;fill-opacity:1;" d="M 26.65625 184.515625 C 107.066406 219.5 202.175781 226.671875 283.105469 189.269531 C 293.738281 184.398438 303.941406 178.738281 313.703125 172.296875 C 323.46875 165.855469 332.679688 158.703125 341.34375 150.84375 C 344.320312 148.117188 349.65625 149.152344 352.996094 150.589844 C 354.914062 151.433594 360.691406 155.0625 357.65625 157.777344 C 289.589844 218.601562 191.570312 233.917969 104.105469 216.4375 C 73.65625 210.40625 44.414062 200.714844 16.390625 187.367188 C 14.308594 186.375 10.917969 183.882812 14.34375 182.382812 C 17.765625 180.886719 23.527344 183.152344 26.65625 184.515625 Z M 26.65625 184.515625 "/><g clip-rule="nonzero" clip-path="url(#17384cf1d5)"><path style=" stroke:none;fill-rule:nonzero;fill:#c03c29;fill-opacity:1;" d="M 271.984375 155.144531 C 284.988281 154.300781 297.894531 153.675781 310.789062 151.578125 C 323.664062 149.472656 336.292969 146.371094 348.675781 142.277344 C 352.152344 141.125 363.550781 142.277344 362.636719 148.050781 C 360.90625 158.8125 358.21875 169.328125 354.574219 179.597656 C 350.925781 189.867188 346.382812 199.722656 340.9375 209.164062 C 338.402344 213.664062 323.222656 208.769531 326.5625 203.019531 C 331.753906 193.875 336.082031 184.335938 339.539062 174.402344 C 342.996094 164.472656 345.527344 154.308594 347.136719 143.917969 L 361.105469 149.691406 C 348.320312 153.859375 335.292969 157.023438 322.019531 159.1875 C 308.390625 161.371094 294.03125 163.078125 280.230469 162.03125 C 276.972656 161.785156 272.878906 160.914062 270.394531 158.648438 C 268.457031 156.871094 269.292969 155.347656 271.984375 155.164062 Z M 271.984375 155.144531 "/></g></g></svg>